<?xml version="1.0" standalone="no"?>
<!DOCTYPE svg PUBLIC "-//W3C//DTD SVG 20010904//EN"
 "http://www.w3.org/TR/2001/REC-SVG-20010904/DTD/svg10.dtd">
<svg version="1.0" xmlns="http://www.w3.org/2000/svg"
 width="174.000000pt" height="174.000000pt" viewBox="0 0 174.000000 174.000000"
 preserveAspectRatio="xMidYMid meet">
<metadata>
Created by potrace 1.11, written by Peter Selinger 2001-2013
</metadata>
<g transform="translate(0.000000,174.000000) scale(0.100000,-0.100000)"
fill="#000000" stroke="none">
<path d="M1563 1576 c3 -8 -1 -20 -9 -27 -8 -7 -13 -18 -10 -24 4 -11 -13 -31
-41 -48 -16 -10 -93 22 -93 38 0 8 7 20 15 29 20 19 19 32 0 16 -13 -10 -19
-10 -35 5 -13 12 -20 14 -20 5 0 -8 -8 -10 -24 -6 -14 3 -26 1 -28 -5 -2 -5
-12 -11 -23 -13 -11 -2 -22 -11 -24 -21 -2 -13 2 -17 16 -13 48 13 68 -42 44
-121 -6 -19 -8 -44 -5 -56 8 -31 -25 -43 -46 -17 -9 11 -26 23 -38 26 -21 7
-26 21 -23 59 4 30 -33 20 -46 -12 -11 -31 -29 -35 -57 -12 -9 7 -22 11 -30 8
-8 -3 -16 -2 -18 2 -2 5 -12 5 -23 0 -17 -6 -17 -8 -3 -8 12 -1 15 -6 11 -18
-9 -25 -25 -34 -40 -21 -18 15 -27 4 -15 -19 14 -25 2 -42 -31 -45 -20 -2 -24
-5 -15 -16 8 -9 8 -16 0 -24 -9 -9 -17 -7 -32 7 -12 11 -20 13 -20 6 0 -8 -5
-9 -19 -1 -30 16 -34 12 -11 -12 11 -12 18 -28 16 -34 -3 -7 -10 -30 -17 -52
-18 -62 -48 -92 -94 -96 -22 -2 -44 -4 -48 -5 -5 -1 -6 -5 -3 -9 2 -4 1 -14
-4 -22 -8 -13 -12 -12 -24 5 -8 11 -12 23 -10 27 3 5 0 8 -5 8 -6 0 -11 -5
-11 -11 0 -7 -10 -9 -27 -4 -23 5 -25 4 -13 -10 7 -8 15 -13 18 -11 2 3 13 1
23 -5 27 -14 25 -56 -3 -64 -32 -10 -68 -45 -68 -67 0 -13 -8 -18 -28 -18 -24
0 -31 7 -49 49 -24 57 -69 91 -122 91 -36 0 -94 -31 -111 -58 -9 -16 -12 -15
-28 4 -26 31 -76 54 -116 54 -50 0 -111 -59 -121 -117 -11 -69 24 -148 94
-212 20 -18 116 -92 140 -108 2 -1 -6 -21 -17 -45 -23 -49 -37 -90 -34 -100 4
-14 -97 -6 -102 8 -3 8 -12 11 -20 8 -8 -3 -24 -1 -35 6 -18 9 -22 7 -31 -14
-11 -30 -8 -63 10 -96 20 -38 84 -80 123 -80 12 0 29 0 37 0 32 0 62 7 68 17
13 19 74 3 105 -28 13 -14 23 -16 40 -10 17 7 35 3 70 -15 26 -13 47 -21 47
-18 0 2 10 -1 22 -8 13 -7 30 -14 38 -15 8 -1 26 -4 39 -7 14 -3 30 -1 36 4
12 10 62 11 80 1 5 -3 28 -7 50 -8 22 -2 42 -8 43 -13 7 -19 20 -10 15 10 -3
12 0 21 8 24 58 15 74 23 74 36 1 28 14 36 52 35 54 -2 101 -23 109 -48 4 -12
16 -34 27 -49 l21 -28 28 31 c20 22 27 37 22 51 -5 18 -3 20 15 15 15 -3 24 0
28 9 3 8 12 13 19 10 7 -3 16 4 19 15 6 18 12 20 43 14 21 -4 43 -8 50 -8 9 0
11 -9 6 -31 -14 -60 -12 -85 5 -78 9 3 21 12 27 20 6 8 16 12 23 8 6 -4 14 0
17 9 4 9 15 20 25 23 17 7 17 10 -3 67 -11 33 -23 61 -28 63 -4 2 -6 11 -3 22
3 12 -3 22 -17 30 l-22 12 21 14 c17 12 19 19 11 34 -6 12 -7 28 -1 42 5 13 7
36 4 50 -4 20 0 28 16 33 24 7 19 28 -17 67 -14 15 -24 29 -21 31 13 10 79 24
79 16 0 -5 4 -9 10 -9 5 0 7 6 4 13 -2 7 7 24 21 37 31 29 36 63 5 35 -11 -10
-22 -16 -24 -14 -3 2 2 35 10 73 17 81 12 106 -20 106 -23 0 -76 -44 -76 -62
0 -5 -4 -7 -9 -4 -10 6 -3 56 11 73 5 7 7 17 3 22 -9 16 58 83 87 86 39 4 68
15 68 25 0 5 14 16 30 25 39 20 38 31 -5 46 -45 17 -45 30 0 26 19 -1 35 -5
35 -10 0 -4 9 -2 21 5 16 10 19 20 14 46 -4 21 -2 32 6 32 8 0 9 3 0 13 -13
16 -5 27 21 27 10 0 18 6 19 13 0 6 3 21 5 32 10 39 9 61 -5 128 -15 75 -22
85 -45 61 -25 -24 -72 -10 -85 27 -5 16 -13 29 -17 29 -3 0 -4 -6 -1 -14z
m-109 -713 c-7 -54 -11 -63 -29 -63 -17 0 -20 25 -4 35 5 4 8 12 6 18 -5 15
11 47 23 47 6 0 8 -16 4 -37z m-13 -104 c7 -27 -6 -49 -29 -49 -13 0 -13 3 2
19 15 17 15 20 2 34 -8 8 -12 17 -9 21 12 12 27 0 34 -25z"/>
</g>
</svg>
